<mxfile host="app.diagrams.net" modified="2021-09-21T17:04:23.605Z" agent="5.0 (Windows NT 10.0; Win64; x64) AppleWebKit/537.36 (KHTML, like Gecko) Chrome/93.0.4577.82 Safari/537.36" etag="gu7UaJFcT3Am9H09Fzkf" version="15.2.9" type="github" pages="2">
  <diagram id="fjc7ldtTmQNcsNeStD3s" name="Register">
    <mxGraphModel dx="981" dy="548" grid="1" gridSize="10" guides="1" tooltips="1" connect="1" arrows="1" fold="1" page="1" pageScale="1" pageWidth="850" pageHeight="1100" math="0" shadow="0">
      <root>
        <mxCell id="0" />
        <mxCell id="1" parent="0" />
        <mxCell id="t-iV4YfEtaA4Sik8pjtC-8" style="edgeStyle=none;rounded=0;orthogonalLoop=1;jettySize=auto;html=1;exitX=1;exitY=0.3333333333333333;exitDx=0;exitDy=0;exitPerimeter=0;" edge="1" parent="1" source="yaiqaI036aTxPu-Qpi3E-1" target="yaiqaI036aTxPu-Qpi3E-2">
          <mxGeometry relative="1" as="geometry" />
        </mxCell>
        <mxCell id="yaiqaI036aTxPu-Qpi3E-1" value="New User" style="shape=umlActor;verticalLabelPosition=bottom;verticalAlign=top;html=1;" parent="1" vertex="1">
          <mxGeometry x="80" y="170" width="30" height="60" as="geometry" />
        </mxCell>
        <mxCell id="t-iV4YfEtaA4Sik8pjtC-2" style="edgeStyle=orthogonalEdgeStyle;rounded=0;orthogonalLoop=1;jettySize=auto;html=1;" edge="1" parent="1" source="yaiqaI036aTxPu-Qpi3E-2" target="yaiqaI036aTxPu-Qpi3E-3">
          <mxGeometry relative="1" as="geometry" />
        </mxCell>
        <mxCell id="yaiqaI036aTxPu-Qpi3E-2" value="RegisterFrom" style="shape=umlBoundary;whiteSpace=wrap;html=1;" parent="1" vertex="1">
          <mxGeometry x="210" y="170" width="100" height="80" as="geometry" />
        </mxCell>
        <mxCell id="t-iV4YfEtaA4Sik8pjtC-3" style="rounded=0;orthogonalLoop=1;jettySize=auto;html=1;" edge="1" parent="1" source="yaiqaI036aTxPu-Qpi3E-3" target="yaiqaI036aTxPu-Qpi3E-4">
          <mxGeometry relative="1" as="geometry" />
        </mxCell>
        <mxCell id="t-iV4YfEtaA4Sik8pjtC-4" style="edgeStyle=none;rounded=0;orthogonalLoop=1;jettySize=auto;html=1;entryX=0.5;entryY=0;entryDx=0;entryDy=0;" edge="1" parent="1" source="yaiqaI036aTxPu-Qpi3E-3" target="4sZlPSB1H0fjpFjgmcHc-1">
          <mxGeometry relative="1" as="geometry" />
        </mxCell>
        <mxCell id="t-iV4YfEtaA4Sik8pjtC-5" style="edgeStyle=none;rounded=0;orthogonalLoop=1;jettySize=auto;html=1;entryX=0.5;entryY=0;entryDx=0;entryDy=0;" edge="1" parent="1" source="yaiqaI036aTxPu-Qpi3E-3" target="4sZlPSB1H0fjpFjgmcHc-3">
          <mxGeometry relative="1" as="geometry" />
        </mxCell>
        <mxCell id="t-iV4YfEtaA4Sik8pjtC-6" style="edgeStyle=none;rounded=0;orthogonalLoop=1;jettySize=auto;html=1;entryX=0.5;entryY=0;entryDx=0;entryDy=0;" edge="1" parent="1" source="yaiqaI036aTxPu-Qpi3E-3" target="4sZlPSB1H0fjpFjgmcHc-2">
          <mxGeometry relative="1" as="geometry" />
        </mxCell>
        <mxCell id="3xtdcWuOzk8aWKBVNUWb-5" style="edgeStyle=none;rounded=0;orthogonalLoop=1;jettySize=auto;html=1;entryX=-0.006;entryY=0.505;entryDx=0;entryDy=0;entryPerimeter=0;" edge="1" parent="1" source="yaiqaI036aTxPu-Qpi3E-3" target="3xtdcWuOzk8aWKBVNUWb-2">
          <mxGeometry relative="1" as="geometry">
            <mxPoint x="537" y="209" as="targetPoint" />
          </mxGeometry>
        </mxCell>
        <mxCell id="yaiqaI036aTxPu-Qpi3E-3" value="Register&lt;br&gt;Controller" style="ellipse;shape=umlControl;whiteSpace=wrap;html=1;" parent="1" vertex="1">
          <mxGeometry x="400" y="170" width="70" height="80" as="geometry" />
        </mxCell>
        <mxCell id="yaiqaI036aTxPu-Qpi3E-4" value="User name" style="ellipse;shape=umlEntity;whiteSpace=wrap;html=1;" parent="1" vertex="1">
          <mxGeometry x="190" y="350" width="80" height="80" as="geometry" />
        </mxCell>
        <mxCell id="jUaBnFoViU3fji7P434Q-1" value="&lt;b&gt;&lt;font style=&quot;font-size: 18px&quot;&gt;Collaboration Diagram: Register&lt;/font&gt;&lt;/b&gt;" style="text;html=1;strokeColor=none;fillColor=none;align=center;verticalAlign=middle;whiteSpace=wrap;rounded=0;" parent="1" vertex="1">
          <mxGeometry x="50" y="120" width="320" height="20" as="geometry" />
        </mxCell>
        <mxCell id="4sZlPSB1H0fjpFjgmcHc-1" value="Password" style="ellipse;shape=umlEntity;whiteSpace=wrap;html=1;" parent="1" vertex="1">
          <mxGeometry x="340" y="350" width="80" height="80" as="geometry" />
        </mxCell>
        <mxCell id="4sZlPSB1H0fjpFjgmcHc-2" value="Birth date" style="ellipse;shape=umlEntity;whiteSpace=wrap;html=1;" parent="1" vertex="1">
          <mxGeometry x="600" y="350" width="80" height="80" as="geometry" />
        </mxCell>
        <mxCell id="4sZlPSB1H0fjpFjgmcHc-3" value="name" style="ellipse;shape=umlEntity;whiteSpace=wrap;html=1;" parent="1" vertex="1">
          <mxGeometry x="460" y="350" width="80" height="80" as="geometry" />
        </mxCell>
        <mxCell id="3xtdcWuOzk8aWKBVNUWb-6" style="edgeStyle=none;rounded=0;orthogonalLoop=1;jettySize=auto;html=1;entryX=0;entryY=0.3333333333333333;entryDx=0;entryDy=0;entryPerimeter=0;" edge="1" parent="1" source="3xtdcWuOzk8aWKBVNUWb-2" target="3xtdcWuOzk8aWKBVNUWb-3">
          <mxGeometry relative="1" as="geometry" />
        </mxCell>
        <mxCell id="3xtdcWuOzk8aWKBVNUWb-2" value="Data Storage" style="shape=umlBoundary;whiteSpace=wrap;html=1;" vertex="1" parent="1">
          <mxGeometry x="540" y="170" width="100" height="80" as="geometry" />
        </mxCell>
        <mxCell id="3xtdcWuOzk8aWKBVNUWb-3" value="&lt;span&gt;User Data CSV&amp;nbsp;&lt;/span&gt;" style="shape=umlActor;verticalLabelPosition=bottom;verticalAlign=top;html=1;" vertex="1" parent="1">
          <mxGeometry x="710" y="180" width="30" height="60" as="geometry" />
        </mxCell>
      </root>
    </mxGraphModel>
  </diagram>
  <diagram id="2xKnuyxjkbW83Z2QAkzn" name="Login">
    <mxGraphModel dx="1422" dy="794" grid="1" gridSize="10" guides="1" tooltips="1" connect="1" arrows="1" fold="1" page="1" pageScale="1" pageWidth="827" pageHeight="1169" math="0" shadow="0">
      <root>
        <mxCell id="eyI3bxU38TPREhqzsuBK-0" />
        <mxCell id="eyI3bxU38TPREhqzsuBK-1" parent="eyI3bxU38TPREhqzsuBK-0" />
        <mxCell id="ZtnMm-Qtx_jKj9Opeqn2-1" style="edgeStyle=none;rounded=0;orthogonalLoop=1;jettySize=auto;html=1;exitX=1;exitY=0.3333333333333333;exitDx=0;exitDy=0;exitPerimeter=0;entryX=0;entryY=0.5;entryDx=0;entryDy=0;entryPerimeter=0;" edge="1" parent="eyI3bxU38TPREhqzsuBK-1" source="eyI3bxU38TPREhqzsuBK-2" target="eyI3bxU38TPREhqzsuBK-3">
          <mxGeometry relative="1" as="geometry" />
        </mxCell>
        <mxCell id="eyI3bxU38TPREhqzsuBK-2" value="Actor" style="shape=umlActor;verticalLabelPosition=bottom;verticalAlign=top;html=1;" parent="eyI3bxU38TPREhqzsuBK-1" vertex="1">
          <mxGeometry x="90" y="180" width="30" height="60" as="geometry" />
        </mxCell>
        <mxCell id="ZtnMm-Qtx_jKj9Opeqn2-2" style="edgeStyle=none;rounded=0;orthogonalLoop=1;jettySize=auto;html=1;entryX=0.029;entryY=0.538;entryDx=0;entryDy=0;entryPerimeter=0;" edge="1" parent="eyI3bxU38TPREhqzsuBK-1" source="eyI3bxU38TPREhqzsuBK-3" target="eyI3bxU38TPREhqzsuBK-4">
          <mxGeometry relative="1" as="geometry" />
        </mxCell>
        <mxCell id="eyI3bxU38TPREhqzsuBK-3" value="Boundary Object" style="shape=umlBoundary;whiteSpace=wrap;html=1;" parent="eyI3bxU38TPREhqzsuBK-1" vertex="1">
          <mxGeometry x="210" y="170" width="100" height="80" as="geometry" />
        </mxCell>
        <mxCell id="ZtnMm-Qtx_jKj9Opeqn2-4" style="edgeStyle=none;rounded=0;orthogonalLoop=1;jettySize=auto;html=1;entryX=0.75;entryY=0;entryDx=0;entryDy=0;entryPerimeter=0;" edge="1" parent="eyI3bxU38TPREhqzsuBK-1" source="eyI3bxU38TPREhqzsuBK-4" target="eyI3bxU38TPREhqzsuBK-5">
          <mxGeometry relative="1" as="geometry" />
        </mxCell>
        <mxCell id="ZtnMm-Qtx_jKj9Opeqn2-5" style="edgeStyle=none;rounded=0;orthogonalLoop=1;jettySize=auto;html=1;entryX=0.5;entryY=0;entryDx=0;entryDy=0;" edge="1" parent="eyI3bxU38TPREhqzsuBK-1" source="eyI3bxU38TPREhqzsuBK-4" target="ZtnMm-Qtx_jKj9Opeqn2-0">
          <mxGeometry relative="1" as="geometry" />
        </mxCell>
        <mxCell id="eyI3bxU38TPREhqzsuBK-4" value="Control Object" style="ellipse;shape=umlControl;whiteSpace=wrap;html=1;" parent="eyI3bxU38TPREhqzsuBK-1" vertex="1">
          <mxGeometry x="450" y="180" width="78.75" height="90" as="geometry" />
        </mxCell>
        <mxCell id="eyI3bxU38TPREhqzsuBK-5" value="Profile" style="ellipse;shape=umlEntity;whiteSpace=wrap;html=1;" parent="eyI3bxU38TPREhqzsuBK-1" vertex="1">
          <mxGeometry x="334" y="380" width="80" height="80" as="geometry" />
        </mxCell>
        <mxCell id="eyI3bxU38TPREhqzsuBK-6" value="&lt;b&gt;&lt;font style=&quot;font-size: 18px&quot;&gt;Collaboration Diagram: Login&lt;/font&gt;&lt;/b&gt;" style="text;html=1;strokeColor=none;fillColor=none;align=center;verticalAlign=middle;whiteSpace=wrap;rounded=0;" parent="eyI3bxU38TPREhqzsuBK-1" vertex="1">
          <mxGeometry x="50" y="120" width="320" height="20" as="geometry" />
        </mxCell>
        <mxCell id="ZtnMm-Qtx_jKj9Opeqn2-0" value="Account Management" style="ellipse;shape=umlEntity;whiteSpace=wrap;html=1;" vertex="1" parent="eyI3bxU38TPREhqzsuBK-1">
          <mxGeometry x="560" y="380" width="80" height="80" as="geometry" />
        </mxCell>
      </root>
    </mxGraphModel>
  </diagram>
</mxfile>
